<mxfile host="Electron" modified="2023-12-23T20:50:10.506Z" agent="Mozilla/5.0 (Windows NT 10.0; Win64; x64) AppleWebKit/537.36 (KHTML, like Gecko) draw.io/22.1.11 Chrome/114.0.5735.289 Electron/25.9.8 Safari/537.36" etag="tqnWynxzPbfheVbw2YeU" version="22.1.11" type="device">
  <diagram name="Page-1" id="HsitdcN0r7PipA14mCh1">
    <mxGraphModel dx="2550" dy="808" grid="1" gridSize="10" guides="1" tooltips="1" connect="1" arrows="1" fold="1" page="1" pageScale="1" pageWidth="1169" pageHeight="1654" math="0" shadow="0">
      <root>
        <mxCell id="0" />
        <mxCell id="1" parent="0" />
        <mxCell id="xkCxTWoLqjTotluT4FzG-1" value="" style="shape=umlLifeline;perimeter=lifelinePerimeter;whiteSpace=wrap;html=1;container=1;dropTarget=0;collapsible=0;recursiveResize=0;outlineConnect=0;portConstraint=eastwest;newEdgeStyle={&quot;curved&quot;:0,&quot;rounded&quot;:0};participant=umlActor;" parent="1" vertex="1">
          <mxGeometry x="50" y="70" width="20" height="570" as="geometry" />
        </mxCell>
        <mxCell id="xkCxTWoLqjTotluT4FzG-39" value="" style="html=1;points=[[0,0,0,0,5],[0,1,0,0,-5],[1,0,0,0,5],[1,1,0,0,-5]];perimeter=orthogonalPerimeter;outlineConnect=0;targetShapes=umlLifeline;portConstraint=eastwest;newEdgeStyle={&quot;curved&quot;:0,&quot;rounded&quot;:0};" parent="xkCxTWoLqjTotluT4FzG-1" vertex="1">
          <mxGeometry x="5" y="226" width="10" height="330" as="geometry" />
        </mxCell>
        <mxCell id="xkCxTWoLqjTotluT4FzG-6" value="User:" style="shape=umlLifeline;perimeter=lifelinePerimeter;whiteSpace=wrap;html=1;container=1;dropTarget=0;collapsible=0;recursiveResize=0;outlineConnect=0;portConstraint=eastwest;newEdgeStyle={&quot;curved&quot;:0,&quot;rounded&quot;:0};" parent="1" vertex="1">
          <mxGeometry x="250" y="70" width="100" height="570" as="geometry" />
        </mxCell>
        <mxCell id="xkCxTWoLqjTotluT4FzG-40" value="" style="html=1;points=[[0,0,0,0,5],[0,1,0,0,-5],[1,0,0,0,5],[1,1,0,0,-5]];perimeter=orthogonalPerimeter;outlineConnect=0;targetShapes=umlLifeline;portConstraint=eastwest;newEdgeStyle={&quot;curved&quot;:0,&quot;rounded&quot;:0};" parent="xkCxTWoLqjTotluT4FzG-6" vertex="1">
          <mxGeometry x="45" y="236" width="10" height="60" as="geometry" />
        </mxCell>
        <mxCell id="xkCxTWoLqjTotluT4FzG-8" value="Product:" style="shape=umlLifeline;perimeter=lifelinePerimeter;whiteSpace=wrap;html=1;container=1;dropTarget=0;collapsible=0;recursiveResize=0;outlineConnect=0;portConstraint=eastwest;newEdgeStyle={&quot;curved&quot;:0,&quot;rounded&quot;:0};" parent="1" vertex="1">
          <mxGeometry x="370" y="70" width="100" height="450" as="geometry" />
        </mxCell>
        <mxCell id="xkCxTWoLqjTotluT4FzG-28" value="Customer" style="text;html=1;strokeColor=none;fillColor=none;align=center;verticalAlign=middle;whiteSpace=wrap;rounded=0;" parent="1" vertex="1">
          <mxGeometry x="30" y="30" width="60" height="30" as="geometry" />
        </mxCell>
        <mxCell id="xkCxTWoLqjTotluT4FzG-36" value="LoginScreen:" style="shape=umlLifeline;perimeter=lifelinePerimeter;whiteSpace=wrap;html=1;container=1;dropTarget=0;collapsible=0;recursiveResize=0;outlineConnect=0;portConstraint=eastwest;newEdgeStyle={&quot;curved&quot;:0,&quot;rounded&quot;:0};" parent="1" vertex="1">
          <mxGeometry x="130" y="70" width="100" height="570" as="geometry" />
        </mxCell>
        <mxCell id="xkCxTWoLqjTotluT4FzG-38" value="" style="html=1;points=[[0,0,0,0,5],[0,1,0,0,-5],[1,0,0,0,5],[1,1,0,0,-5]];perimeter=orthogonalPerimeter;outlineConnect=0;targetShapes=umlLifeline;portConstraint=eastwest;newEdgeStyle={&quot;curved&quot;:0,&quot;rounded&quot;:0};" parent="xkCxTWoLqjTotluT4FzG-36" vertex="1">
          <mxGeometry x="45" y="226" width="10" height="80" as="geometry" />
        </mxCell>
        <mxCell id="xkCxTWoLqjTotluT4FzG-41" value="&lt;font style=&quot;font-size: 10px;&quot;&gt;Login(email,pass)&lt;/font&gt;" style="html=1;verticalAlign=bottom;endArrow=block;curved=0;rounded=0;exitX=1;exitY=0;exitDx=0;exitDy=5;exitPerimeter=0;" parent="1" edge="1">
          <mxGeometry width="80" relative="1" as="geometry">
            <mxPoint x="65" y="316" as="sourcePoint" />
            <mxPoint x="175" y="316" as="targetPoint" />
          </mxGeometry>
        </mxCell>
        <mxCell id="xkCxTWoLqjTotluT4FzG-42" value="Verification" style="html=1;verticalAlign=bottom;endArrow=block;curved=0;rounded=0;entryX=-0.015;entryY=0.25;entryDx=0;entryDy=0;entryPerimeter=0;" parent="1" edge="1">
          <mxGeometry width="80" relative="1" as="geometry">
            <mxPoint x="185" y="326" as="sourcePoint" />
            <mxPoint x="295" y="326" as="targetPoint" />
          </mxGeometry>
        </mxCell>
        <mxCell id="xkCxTWoLqjTotluT4FzG-43" value="" style="html=1;verticalAlign=bottom;endArrow=open;dashed=1;endSize=8;curved=0;rounded=0;exitX=0;exitY=1;exitDx=0;exitDy=-5;exitPerimeter=0;" parent="1" edge="1">
          <mxGeometry relative="1" as="geometry">
            <mxPoint x="175" y="366" as="sourcePoint" />
            <mxPoint x="65" y="366" as="targetPoint" />
          </mxGeometry>
        </mxCell>
        <mxCell id="xkCxTWoLqjTotluT4FzG-44" value="" style="html=1;verticalAlign=bottom;endArrow=open;dashed=1;endSize=8;curved=0;rounded=0;exitX=0;exitY=1;exitDx=0;exitDy=-5;exitPerimeter=0;" parent="1" edge="1">
          <mxGeometry relative="1" as="geometry">
            <mxPoint x="295" y="346.0000000000002" as="sourcePoint" />
            <mxPoint x="185" y="346.0000000000002" as="targetPoint" />
          </mxGeometry>
        </mxCell>
        <mxCell id="byuAqjHyBLykVp3YYDhN-1" value="Product:" style="shape=umlLifeline;perimeter=lifelinePerimeter;whiteSpace=wrap;html=1;container=1;dropTarget=0;collapsible=0;recursiveResize=0;outlineConnect=0;portConstraint=eastwest;newEdgeStyle={&quot;curved&quot;:0,&quot;rounded&quot;:0};" parent="1" vertex="1">
          <mxGeometry x="370" y="70" width="100" height="570" as="geometry" />
        </mxCell>
        <mxCell id="byuAqjHyBLykVp3YYDhN-2" value="" style="html=1;points=[[0,0,0,0,5],[0,1,0,0,-5],[1,0,0,0,5],[1,1,0,0,-5]];perimeter=orthogonalPerimeter;outlineConnect=0;targetShapes=umlLifeline;portConstraint=eastwest;newEdgeStyle={&quot;curved&quot;:0,&quot;rounded&quot;:0};" parent="byuAqjHyBLykVp3YYDhN-1" vertex="1">
          <mxGeometry x="45" y="320" width="10" height="80" as="geometry" />
        </mxCell>
        <mxCell id="byuAqjHyBLykVp3YYDhN-4" value="" style="html=1;points=[[0,0,0,0,5],[0,1,0,0,-5],[1,0,0,0,5],[1,1,0,0,-5]];perimeter=orthogonalPerimeter;outlineConnect=0;targetShapes=umlLifeline;portConstraint=eastwest;newEdgeStyle={&quot;curved&quot;:0,&quot;rounded&quot;:0};" parent="byuAqjHyBLykVp3YYDhN-1" vertex="1">
          <mxGeometry x="740" y="120" width="10" height="80" as="geometry" />
        </mxCell>
        <mxCell id="byuAqjHyBLykVp3YYDhN-10" value="Cart:" style="shape=umlLifeline;perimeter=lifelinePerimeter;whiteSpace=wrap;html=1;container=1;dropTarget=0;collapsible=0;recursiveResize=0;outlineConnect=0;portConstraint=eastwest;newEdgeStyle={&quot;curved&quot;:0,&quot;rounded&quot;:0};" parent="1" vertex="1">
          <mxGeometry x="490" y="70" width="100" height="570" as="geometry" />
        </mxCell>
        <mxCell id="byuAqjHyBLykVp3YYDhN-11" value="" style="html=1;points=[[0,0,0,0,5],[0,1,0,0,-5],[1,0,0,0,5],[1,1,0,0,-5]];perimeter=orthogonalPerimeter;outlineConnect=0;targetShapes=umlLifeline;portConstraint=eastwest;newEdgeStyle={&quot;curved&quot;:0,&quot;rounded&quot;:0};" parent="byuAqjHyBLykVp3YYDhN-10" vertex="1">
          <mxGeometry x="45" y="321" width="10" height="60" as="geometry" />
        </mxCell>
        <mxCell id="byuAqjHyBLykVp3YYDhN-13" value="" style="html=1;points=[[0,0,0,0,5],[0,1,0,0,-5],[1,0,0,0,5],[1,1,0,0,-5]];perimeter=orthogonalPerimeter;outlineConnect=0;targetShapes=umlLifeline;portConstraint=eastwest;newEdgeStyle={&quot;curved&quot;:0,&quot;rounded&quot;:0};" parent="byuAqjHyBLykVp3YYDhN-10" vertex="1">
          <mxGeometry x="45" y="422" width="10" height="80" as="geometry" />
        </mxCell>
        <mxCell id="byuAqjHyBLykVp3YYDhN-14" value="Order:" style="shape=umlLifeline;perimeter=lifelinePerimeter;whiteSpace=wrap;html=1;container=1;dropTarget=0;collapsible=0;recursiveResize=0;outlineConnect=0;portConstraint=eastwest;newEdgeStyle={&quot;curved&quot;:0,&quot;rounded&quot;:0};" parent="1" vertex="1">
          <mxGeometry x="610" y="70" width="100" height="570" as="geometry" />
        </mxCell>
        <mxCell id="byuAqjHyBLykVp3YYDhN-15" value="" style="html=1;points=[[0,0,0,0,5],[0,1,0,0,-5],[1,0,0,0,5],[1,1,0,0,-5]];perimeter=orthogonalPerimeter;outlineConnect=0;targetShapes=umlLifeline;portConstraint=eastwest;newEdgeStyle={&quot;curved&quot;:0,&quot;rounded&quot;:0};" parent="byuAqjHyBLykVp3YYDhN-14" vertex="1">
          <mxGeometry x="45" y="428" width="10" height="60" as="geometry" />
        </mxCell>
        <mxCell id="byuAqjHyBLykVp3YYDhN-16" value="" style="html=1;points=[[0,0,0,0,5],[0,1,0,0,-5],[1,0,0,0,5],[1,1,0,0,-5]];perimeter=orthogonalPerimeter;outlineConnect=0;targetShapes=umlLifeline;portConstraint=eastwest;newEdgeStyle={&quot;curved&quot;:0,&quot;rounded&quot;:0};" parent="byuAqjHyBLykVp3YYDhN-14" vertex="1">
          <mxGeometry x="740" y="132" width="10" height="60" as="geometry" />
        </mxCell>
        <mxCell id="byuAqjHyBLykVp3YYDhN-17" value="" style="html=1;points=[[0,0,0,0,5],[0,1,0,0,-5],[1,0,0,0,5],[1,1,0,0,-5]];perimeter=orthogonalPerimeter;outlineConnect=0;targetShapes=umlLifeline;portConstraint=eastwest;newEdgeStyle={&quot;curved&quot;:0,&quot;rounded&quot;:0};" parent="byuAqjHyBLykVp3YYDhN-14" vertex="1">
          <mxGeometry x="740" y="223" width="10" height="60" as="geometry" />
        </mxCell>
        <mxCell id="byuAqjHyBLykVp3YYDhN-21" value="AddProductToCart" style="html=1;verticalAlign=bottom;endArrow=open;curved=0;rounded=0;endFill=0;" parent="1" edge="1">
          <mxGeometry width="80" relative="1" as="geometry">
            <mxPoint x="65" y="403" as="sourcePoint" />
            <mxPoint x="415" y="403" as="targetPoint" />
          </mxGeometry>
        </mxCell>
        <mxCell id="byuAqjHyBLykVp3YYDhN-22" value="AddToCart" style="html=1;verticalAlign=bottom;endArrow=open;curved=0;rounded=0;entryX=0;entryY=0;entryDx=0;entryDy=5;entryPerimeter=0;endFill=0;" parent="1" source="byuAqjHyBLykVp3YYDhN-2" edge="1">
          <mxGeometry width="80" relative="1" as="geometry">
            <mxPoint x="410" y="350" as="sourcePoint" />
            <mxPoint x="535" y="405" as="targetPoint" />
          </mxGeometry>
        </mxCell>
        <mxCell id="byuAqjHyBLykVp3YYDhN-25" value="PurchaseProductsInCart" style="html=1;verticalAlign=bottom;endArrow=open;curved=0;rounded=0;endFill=0;" parent="1" edge="1">
          <mxGeometry width="80" relative="1" as="geometry">
            <mxPoint x="65" y="504" as="sourcePoint" />
            <mxPoint x="535" y="504" as="targetPoint" />
          </mxGeometry>
        </mxCell>
        <mxCell id="byuAqjHyBLykVp3YYDhN-26" value="MakeAnOrder" style="html=1;verticalAlign=bottom;endArrow=open;curved=0;rounded=0;entryX=0;entryY=0;entryDx=0;entryDy=5;entryPerimeter=0;endFill=0;" parent="1" edge="1">
          <mxGeometry width="80" relative="1" as="geometry">
            <mxPoint x="544.9999999999999" y="512.0000000000001" as="sourcePoint" />
            <mxPoint x="654.9999999999999" y="512.0000000000001" as="targetPoint" />
          </mxGeometry>
        </mxCell>
        <mxCell id="byuAqjHyBLykVp3YYDhN-27" value="BuyProductDirect" style="html=1;verticalAlign=bottom;endArrow=open;curved=0;rounded=0;endFill=0;" parent="1" edge="1">
          <mxGeometry width="80" relative="1" as="geometry">
            <mxPoint x="760" y="204" as="sourcePoint" />
            <mxPoint x="1110" y="204" as="targetPoint" />
          </mxGeometry>
        </mxCell>
        <mxCell id="byuAqjHyBLykVp3YYDhN-28" value="MakeAnOrder" style="html=1;verticalAlign=bottom;endArrow=open;curved=0;rounded=0;entryX=0;entryY=0;entryDx=0;entryDy=5;entryPerimeter=0;endFill=0;" parent="1" edge="1">
          <mxGeometry width="80" relative="1" as="geometry">
            <mxPoint x="1120" y="213" as="sourcePoint" />
            <mxPoint x="1350" y="213" as="targetPoint" />
          </mxGeometry>
        </mxCell>
        <mxCell id="byuAqjHyBLykVp3YYDhN-29" value="ViewHistoryOfOrders" style="html=1;verticalAlign=bottom;endArrow=open;curved=0;rounded=0;entryX=0;entryY=0;entryDx=0;entryDy=5;entryPerimeter=0;endFill=0;" parent="1" edge="1">
          <mxGeometry width="80" relative="1" as="geometry">
            <mxPoint x="760" y="304" as="sourcePoint" />
            <mxPoint x="1350" y="304" as="targetPoint" />
          </mxGeometry>
        </mxCell>
        <mxCell id="conp8-0LCWzHYiCez7KT-2" value="opt" style="shape=umlFrame;whiteSpace=wrap;html=1;pointerEvents=0;width=40;height=20;" vertex="1" parent="1">
          <mxGeometry x="-20" y="476" width="730" height="110" as="geometry" />
        </mxCell>
        <mxCell id="conp8-0LCWzHYiCez7KT-3" value="[productInCart]" style="text;html=1;align=center;verticalAlign=middle;resizable=0;points=[];autosize=1;strokeColor=none;fillColor=none;fontSize=10;" vertex="1" parent="1">
          <mxGeometry x="-30" y="496" width="90" height="30" as="geometry" />
        </mxCell>
        <mxCell id="conp8-0LCWzHYiCez7KT-4" value="Product:" style="shape=umlLifeline;perimeter=lifelinePerimeter;whiteSpace=wrap;html=1;container=1;dropTarget=0;collapsible=0;recursiveResize=0;outlineConnect=0;portConstraint=eastwest;newEdgeStyle={&quot;curved&quot;:0,&quot;rounded&quot;:0};" vertex="1" parent="1">
          <mxGeometry x="1495" y="60" width="100" height="1520" as="geometry" />
        </mxCell>
        <mxCell id="conp8-0LCWzHYiCez7KT-6" value="" style="html=1;points=[[0,0,0,0,5],[0,1,0,0,-5],[1,0,0,0,5],[1,1,0,0,-5]];perimeter=orthogonalPerimeter;outlineConnect=0;targetShapes=umlLifeline;portConstraint=eastwest;newEdgeStyle={&quot;curved&quot;:0,&quot;rounded&quot;:0};" vertex="1" parent="conp8-0LCWzHYiCez7KT-4">
          <mxGeometry x="45" y="430" width="10" height="80" as="geometry" />
        </mxCell>
        <mxCell id="conp8-0LCWzHYiCez7KT-8" value="" style="html=1;points=[[0,0,0,0,5],[0,1,0,0,-5],[1,0,0,0,5],[1,1,0,0,-5]];perimeter=orthogonalPerimeter;outlineConnect=0;targetShapes=umlLifeline;portConstraint=eastwest;newEdgeStyle={&quot;curved&quot;:0,&quot;rounded&quot;:0};" vertex="1" parent="conp8-0LCWzHYiCez7KT-4">
          <mxGeometry x="45" y="1010" width="10" height="50" as="geometry" />
        </mxCell>
        <mxCell id="conp8-0LCWzHYiCez7KT-9" value="" style="html=1;points=[[0,0,0,0,5],[0,1,0,0,-5],[1,0,0,0,5],[1,1,0,0,-5]];perimeter=orthogonalPerimeter;outlineConnect=0;targetShapes=umlLifeline;portConstraint=eastwest;newEdgeStyle={&quot;curved&quot;:0,&quot;rounded&quot;:0};" vertex="1" parent="conp8-0LCWzHYiCez7KT-4">
          <mxGeometry x="45" y="1080" width="10" height="50" as="geometry" />
        </mxCell>
        <mxCell id="conp8-0LCWzHYiCez7KT-10" value="AddProduct" style="html=1;verticalAlign=bottom;endArrow=block;curved=0;rounded=0;exitX=1;exitY=0;exitDx=0;exitDy=5;exitPerimeter=0;" edge="1" parent="conp8-0LCWzHYiCez7KT-4" target="conp8-0LCWzHYiCez7KT-9">
          <mxGeometry width="80" relative="1" as="geometry">
            <mxPoint x="-305" y="1094.63" as="sourcePoint" />
            <mxPoint x="45" y="1094.63" as="targetPoint" />
          </mxGeometry>
        </mxCell>
        <mxCell id="conp8-0LCWzHYiCez7KT-11" value="" style="html=1;points=[[0,0,0,0,5],[0,1,0,0,-5],[1,0,0,0,5],[1,1,0,0,-5]];perimeter=orthogonalPerimeter;outlineConnect=0;targetShapes=umlLifeline;portConstraint=eastwest;newEdgeStyle={&quot;curved&quot;:0,&quot;rounded&quot;:0};" vertex="1" parent="conp8-0LCWzHYiCez7KT-4">
          <mxGeometry x="45" y="1150" width="10" height="50" as="geometry" />
        </mxCell>
        <mxCell id="conp8-0LCWzHYiCez7KT-12" value="RemoveProduct" style="html=1;verticalAlign=bottom;endArrow=block;curved=0;rounded=0;exitX=1;exitY=0;exitDx=0;exitDy=5;exitPerimeter=0;" edge="1" parent="conp8-0LCWzHYiCez7KT-4" target="conp8-0LCWzHYiCez7KT-11">
          <mxGeometry width="80" relative="1" as="geometry">
            <mxPoint x="-305" y="1164.63" as="sourcePoint" />
            <mxPoint x="45" y="1164.63" as="targetPoint" />
          </mxGeometry>
        </mxCell>
        <mxCell id="conp8-0LCWzHYiCez7KT-13" value="Cart:" style="shape=umlLifeline;perimeter=lifelinePerimeter;whiteSpace=wrap;html=1;container=1;dropTarget=0;collapsible=0;recursiveResize=0;outlineConnect=0;portConstraint=eastwest;newEdgeStyle={&quot;curved&quot;:0,&quot;rounded&quot;:0};" vertex="1" parent="1">
          <mxGeometry x="1615" y="60" width="100" height="1520" as="geometry" />
        </mxCell>
        <mxCell id="conp8-0LCWzHYiCez7KT-15" value="" style="html=1;points=[[0,0,0,0,5],[0,1,0,0,-5],[1,0,0,0,5],[1,1,0,0,-5]];perimeter=orthogonalPerimeter;outlineConnect=0;targetShapes=umlLifeline;portConstraint=eastwest;newEdgeStyle={&quot;curved&quot;:0,&quot;rounded&quot;:0};" vertex="1" parent="conp8-0LCWzHYiCez7KT-13">
          <mxGeometry x="45" y="440" width="10" height="60" as="geometry" />
        </mxCell>
        <mxCell id="conp8-0LCWzHYiCez7KT-17" value="RemoveProductFromCart" style="html=1;verticalAlign=bottom;endArrow=block;curved=0;rounded=0;" edge="1" parent="1">
          <mxGeometry width="80" relative="1" as="geometry">
            <mxPoint x="1190" y="500" as="sourcePoint" />
            <mxPoint x="1540" y="500" as="targetPoint" />
          </mxGeometry>
        </mxCell>
        <mxCell id="conp8-0LCWzHYiCez7KT-18" value="RemoveFromCart" style="html=1;verticalAlign=bottom;endArrow=block;curved=0;rounded=0;" edge="1" parent="1" source="conp8-0LCWzHYiCez7KT-6">
          <mxGeometry width="80" relative="1" as="geometry">
            <mxPoint x="1555" y="510" as="sourcePoint" />
            <mxPoint x="1660" y="510" as="targetPoint" />
          </mxGeometry>
        </mxCell>
        <mxCell id="conp8-0LCWzHYiCez7KT-24" value="opt" style="shape=umlFrame;whiteSpace=wrap;html=1;pointerEvents=0;width=40;height=20;" vertex="1" parent="1">
          <mxGeometry x="-20" y="130" width="370" height="140" as="geometry" />
        </mxCell>
        <mxCell id="conp8-0LCWzHYiCez7KT-25" value="[Not Registered]" style="text;html=1;align=center;verticalAlign=middle;resizable=0;points=[];autosize=1;strokeColor=none;fillColor=none;fontSize=9;" vertex="1" parent="1">
          <mxGeometry x="-30" y="150" width="90" height="20" as="geometry" />
        </mxCell>
        <mxCell id="conp8-0LCWzHYiCez7KT-26" value="" style="html=1;points=[[0,0,0,0,5],[0,1,0,0,-5],[1,0,0,0,5],[1,1,0,0,-5]];perimeter=orthogonalPerimeter;outlineConnect=0;targetShapes=umlLifeline;portConstraint=eastwest;newEdgeStyle={&quot;curved&quot;:0,&quot;rounded&quot;:0};" vertex="1" parent="1">
          <mxGeometry x="295" y="160" width="10" height="50" as="geometry" />
        </mxCell>
        <mxCell id="conp8-0LCWzHYiCez7KT-27" value="Register" style="html=1;verticalAlign=bottom;endArrow=block;curved=0;rounded=0;exitX=1;exitY=0;exitDx=0;exitDy=5;exitPerimeter=0;" edge="1" parent="1">
          <mxGeometry width="80" relative="1" as="geometry">
            <mxPoint x="65" y="165" as="sourcePoint" />
            <mxPoint x="175" y="165" as="targetPoint" />
          </mxGeometry>
        </mxCell>
        <mxCell id="conp8-0LCWzHYiCez7KT-28" value="AddUserData" style="html=1;verticalAlign=bottom;endArrow=block;curved=0;rounded=0;entryX=-0.015;entryY=0.25;entryDx=0;entryDy=0;entryPerimeter=0;" edge="1" parent="1" source="conp8-0LCWzHYiCez7KT-32" target="conp8-0LCWzHYiCez7KT-26">
          <mxGeometry width="80" relative="1" as="geometry">
            <mxPoint x="185" y="172.5" as="sourcePoint" />
            <mxPoint x="290" y="180" as="targetPoint" />
          </mxGeometry>
        </mxCell>
        <mxCell id="conp8-0LCWzHYiCez7KT-29" value="" style="html=1;verticalAlign=bottom;endArrow=open;dashed=1;endSize=8;curved=0;rounded=0;exitX=0;exitY=1;exitDx=0;exitDy=-5;exitPerimeter=0;" edge="1" parent="1" source="conp8-0LCWzHYiCez7KT-26">
          <mxGeometry relative="1" as="geometry">
            <mxPoint x="295" y="200" as="sourcePoint" />
            <mxPoint x="185" y="205" as="targetPoint" />
          </mxGeometry>
        </mxCell>
        <mxCell id="conp8-0LCWzHYiCez7KT-30" value="" style="html=1;verticalAlign=bottom;endArrow=open;dashed=1;endSize=8;curved=0;rounded=0;exitX=0;exitY=1;exitDx=0;exitDy=-5;exitPerimeter=0;entryX=1;entryY=1;entryDx=0;entryDy=-5;entryPerimeter=0;" edge="1" parent="1">
          <mxGeometry relative="1" as="geometry">
            <mxPoint x="175" y="235" as="sourcePoint" />
            <mxPoint x="65" y="235" as="targetPoint" />
          </mxGeometry>
        </mxCell>
        <mxCell id="conp8-0LCWzHYiCez7KT-31" value="" style="html=1;points=[[0,0,0,0,5],[0,1,0,0,-5],[1,0,0,0,5],[1,1,0,0,-5]];perimeter=orthogonalPerimeter;outlineConnect=0;targetShapes=umlLifeline;portConstraint=eastwest;newEdgeStyle={&quot;curved&quot;:0,&quot;rounded&quot;:0};" vertex="1" parent="1">
          <mxGeometry x="55" y="150" width="10" height="100" as="geometry" />
        </mxCell>
        <mxCell id="conp8-0LCWzHYiCez7KT-33" value="" style="html=1;verticalAlign=bottom;endArrow=block;curved=0;rounded=0;entryX=-0.015;entryY=0.25;entryDx=0;entryDy=0;entryPerimeter=0;" edge="1" parent="1" target="conp8-0LCWzHYiCez7KT-32">
          <mxGeometry width="80" relative="1" as="geometry">
            <mxPoint x="185" y="172.5" as="sourcePoint" />
            <mxPoint x="295" y="173" as="targetPoint" />
          </mxGeometry>
        </mxCell>
        <mxCell id="conp8-0LCWzHYiCez7KT-32" value="" style="html=1;points=[[0,0,0,0,5],[0,1,0,0,-5],[1,0,0,0,5],[1,1,0,0,-5]];perimeter=orthogonalPerimeter;outlineConnect=0;targetShapes=umlLifeline;portConstraint=eastwest;newEdgeStyle={&quot;curved&quot;:0,&quot;rounded&quot;:0};" vertex="1" parent="1">
          <mxGeometry x="175" y="150" width="10" height="100" as="geometry" />
        </mxCell>
        <mxCell id="conp8-0LCWzHYiCez7KT-72" value="" style="shape=umlLifeline;perimeter=lifelinePerimeter;whiteSpace=wrap;html=1;container=1;dropTarget=0;collapsible=0;recursiveResize=0;outlineConnect=0;portConstraint=eastwest;newEdgeStyle={&quot;curved&quot;:0,&quot;rounded&quot;:0};participant=umlActor;" vertex="1" parent="1">
          <mxGeometry x="50" y="690" width="20" height="570" as="geometry" />
        </mxCell>
        <mxCell id="conp8-0LCWzHYiCez7KT-73" value="" style="html=1;points=[[0,0,0,0,5],[0,1,0,0,-5],[1,0,0,0,5],[1,1,0,0,-5]];perimeter=orthogonalPerimeter;outlineConnect=0;targetShapes=umlLifeline;portConstraint=eastwest;newEdgeStyle={&quot;curved&quot;:0,&quot;rounded&quot;:0};" vertex="1" parent="conp8-0LCWzHYiCez7KT-72">
          <mxGeometry x="5" y="226" width="10" height="330" as="geometry" />
        </mxCell>
        <mxCell id="conp8-0LCWzHYiCez7KT-74" value="User:" style="shape=umlLifeline;perimeter=lifelinePerimeter;whiteSpace=wrap;html=1;container=1;dropTarget=0;collapsible=0;recursiveResize=0;outlineConnect=0;portConstraint=eastwest;newEdgeStyle={&quot;curved&quot;:0,&quot;rounded&quot;:0};" vertex="1" parent="1">
          <mxGeometry x="250" y="690" width="100" height="570" as="geometry" />
        </mxCell>
        <mxCell id="conp8-0LCWzHYiCez7KT-75" value="" style="html=1;points=[[0,0,0,0,5],[0,1,0,0,-5],[1,0,0,0,5],[1,1,0,0,-5]];perimeter=orthogonalPerimeter;outlineConnect=0;targetShapes=umlLifeline;portConstraint=eastwest;newEdgeStyle={&quot;curved&quot;:0,&quot;rounded&quot;:0};" vertex="1" parent="conp8-0LCWzHYiCez7KT-74">
          <mxGeometry x="45" y="236" width="10" height="60" as="geometry" />
        </mxCell>
        <mxCell id="conp8-0LCWzHYiCez7KT-76" value="Product:" style="shape=umlLifeline;perimeter=lifelinePerimeter;whiteSpace=wrap;html=1;container=1;dropTarget=0;collapsible=0;recursiveResize=0;outlineConnect=0;portConstraint=eastwest;newEdgeStyle={&quot;curved&quot;:0,&quot;rounded&quot;:0};" vertex="1" parent="1">
          <mxGeometry x="370" y="690" width="100" height="450" as="geometry" />
        </mxCell>
        <mxCell id="conp8-0LCWzHYiCez7KT-77" value="Customer" style="text;html=1;strokeColor=none;fillColor=none;align=center;verticalAlign=middle;whiteSpace=wrap;rounded=0;" vertex="1" parent="1">
          <mxGeometry x="30" y="650" width="60" height="30" as="geometry" />
        </mxCell>
        <mxCell id="conp8-0LCWzHYiCez7KT-78" value="LoginScreen:" style="shape=umlLifeline;perimeter=lifelinePerimeter;whiteSpace=wrap;html=1;container=1;dropTarget=0;collapsible=0;recursiveResize=0;outlineConnect=0;portConstraint=eastwest;newEdgeStyle={&quot;curved&quot;:0,&quot;rounded&quot;:0};" vertex="1" parent="1">
          <mxGeometry x="130" y="690" width="100" height="570" as="geometry" />
        </mxCell>
        <mxCell id="conp8-0LCWzHYiCez7KT-79" value="" style="html=1;points=[[0,0,0,0,5],[0,1,0,0,-5],[1,0,0,0,5],[1,1,0,0,-5]];perimeter=orthogonalPerimeter;outlineConnect=0;targetShapes=umlLifeline;portConstraint=eastwest;newEdgeStyle={&quot;curved&quot;:0,&quot;rounded&quot;:0};" vertex="1" parent="conp8-0LCWzHYiCez7KT-78">
          <mxGeometry x="45" y="226" width="10" height="80" as="geometry" />
        </mxCell>
        <mxCell id="conp8-0LCWzHYiCez7KT-80" value="&lt;font style=&quot;font-size: 10px;&quot;&gt;Login(email,pass)&lt;/font&gt;" style="html=1;verticalAlign=bottom;endArrow=block;curved=0;rounded=0;exitX=1;exitY=0;exitDx=0;exitDy=5;exitPerimeter=0;" edge="1" parent="1">
          <mxGeometry width="80" relative="1" as="geometry">
            <mxPoint x="65" y="936" as="sourcePoint" />
            <mxPoint x="175" y="936" as="targetPoint" />
          </mxGeometry>
        </mxCell>
        <mxCell id="conp8-0LCWzHYiCez7KT-81" value="Verification" style="html=1;verticalAlign=bottom;endArrow=block;curved=0;rounded=0;entryX=-0.015;entryY=0.25;entryDx=0;entryDy=0;entryPerimeter=0;" edge="1" parent="1">
          <mxGeometry width="80" relative="1" as="geometry">
            <mxPoint x="185" y="946" as="sourcePoint" />
            <mxPoint x="295" y="946" as="targetPoint" />
          </mxGeometry>
        </mxCell>
        <mxCell id="conp8-0LCWzHYiCez7KT-82" value="" style="html=1;verticalAlign=bottom;endArrow=open;dashed=1;endSize=8;curved=0;rounded=0;exitX=0;exitY=1;exitDx=0;exitDy=-5;exitPerimeter=0;" edge="1" parent="1">
          <mxGeometry relative="1" as="geometry">
            <mxPoint x="175" y="986" as="sourcePoint" />
            <mxPoint x="65" y="986" as="targetPoint" />
          </mxGeometry>
        </mxCell>
        <mxCell id="conp8-0LCWzHYiCez7KT-83" value="" style="html=1;verticalAlign=bottom;endArrow=open;dashed=1;endSize=8;curved=0;rounded=0;exitX=0;exitY=1;exitDx=0;exitDy=-5;exitPerimeter=0;" edge="1" parent="1">
          <mxGeometry relative="1" as="geometry">
            <mxPoint x="295" y="966.0000000000002" as="sourcePoint" />
            <mxPoint x="185" y="966.0000000000002" as="targetPoint" />
          </mxGeometry>
        </mxCell>
        <mxCell id="conp8-0LCWzHYiCez7KT-84" value="Product:" style="shape=umlLifeline;perimeter=lifelinePerimeter;whiteSpace=wrap;html=1;container=1;dropTarget=0;collapsible=0;recursiveResize=0;outlineConnect=0;portConstraint=eastwest;newEdgeStyle={&quot;curved&quot;:0,&quot;rounded&quot;:0};" vertex="1" parent="1">
          <mxGeometry x="370" y="690" width="100" height="570" as="geometry" />
        </mxCell>
        <mxCell id="conp8-0LCWzHYiCez7KT-85" value="" style="html=1;points=[[0,0,0,0,5],[0,1,0,0,-5],[1,0,0,0,5],[1,1,0,0,-5]];perimeter=orthogonalPerimeter;outlineConnect=0;targetShapes=umlLifeline;portConstraint=eastwest;newEdgeStyle={&quot;curved&quot;:0,&quot;rounded&quot;:0};" vertex="1" parent="conp8-0LCWzHYiCez7KT-84">
          <mxGeometry x="45" y="320" width="10" height="80" as="geometry" />
        </mxCell>
        <mxCell id="conp8-0LCWzHYiCez7KT-86" value="" style="html=1;points=[[0,0,0,0,5],[0,1,0,0,-5],[1,0,0,0,5],[1,1,0,0,-5]];perimeter=orthogonalPerimeter;outlineConnect=0;targetShapes=umlLifeline;portConstraint=eastwest;newEdgeStyle={&quot;curved&quot;:0,&quot;rounded&quot;:0};" vertex="1" parent="conp8-0LCWzHYiCez7KT-84">
          <mxGeometry x="740" y="120" width="10" height="80" as="geometry" />
        </mxCell>
        <mxCell id="conp8-0LCWzHYiCez7KT-87" value="Cart:" style="shape=umlLifeline;perimeter=lifelinePerimeter;whiteSpace=wrap;html=1;container=1;dropTarget=0;collapsible=0;recursiveResize=0;outlineConnect=0;portConstraint=eastwest;newEdgeStyle={&quot;curved&quot;:0,&quot;rounded&quot;:0};" vertex="1" parent="1">
          <mxGeometry x="490" y="690" width="100" height="570" as="geometry" />
        </mxCell>
        <mxCell id="conp8-0LCWzHYiCez7KT-88" value="" style="html=1;points=[[0,0,0,0,5],[0,1,0,0,-5],[1,0,0,0,5],[1,1,0,0,-5]];perimeter=orthogonalPerimeter;outlineConnect=0;targetShapes=umlLifeline;portConstraint=eastwest;newEdgeStyle={&quot;curved&quot;:0,&quot;rounded&quot;:0};" vertex="1" parent="conp8-0LCWzHYiCez7KT-87">
          <mxGeometry x="45" y="321" width="10" height="60" as="geometry" />
        </mxCell>
        <mxCell id="conp8-0LCWzHYiCez7KT-89" value="" style="html=1;points=[[0,0,0,0,5],[0,1,0,0,-5],[1,0,0,0,5],[1,1,0,0,-5]];perimeter=orthogonalPerimeter;outlineConnect=0;targetShapes=umlLifeline;portConstraint=eastwest;newEdgeStyle={&quot;curved&quot;:0,&quot;rounded&quot;:0};" vertex="1" parent="conp8-0LCWzHYiCez7KT-87">
          <mxGeometry x="45" y="422" width="10" height="80" as="geometry" />
        </mxCell>
        <mxCell id="conp8-0LCWzHYiCez7KT-90" value="Order:" style="shape=umlLifeline;perimeter=lifelinePerimeter;whiteSpace=wrap;html=1;container=1;dropTarget=0;collapsible=0;recursiveResize=0;outlineConnect=0;portConstraint=eastwest;newEdgeStyle={&quot;curved&quot;:0,&quot;rounded&quot;:0};" vertex="1" parent="1">
          <mxGeometry x="610" y="690" width="100" height="570" as="geometry" />
        </mxCell>
        <mxCell id="conp8-0LCWzHYiCez7KT-91" value="" style="html=1;points=[[0,0,0,0,5],[0,1,0,0,-5],[1,0,0,0,5],[1,1,0,0,-5]];perimeter=orthogonalPerimeter;outlineConnect=0;targetShapes=umlLifeline;portConstraint=eastwest;newEdgeStyle={&quot;curved&quot;:0,&quot;rounded&quot;:0};" vertex="1" parent="conp8-0LCWzHYiCez7KT-90">
          <mxGeometry x="45" y="428" width="10" height="60" as="geometry" />
        </mxCell>
        <mxCell id="conp8-0LCWzHYiCez7KT-92" value="" style="html=1;points=[[0,0,0,0,5],[0,1,0,0,-5],[1,0,0,0,5],[1,1,0,0,-5]];perimeter=orthogonalPerimeter;outlineConnect=0;targetShapes=umlLifeline;portConstraint=eastwest;newEdgeStyle={&quot;curved&quot;:0,&quot;rounded&quot;:0};" vertex="1" parent="conp8-0LCWzHYiCez7KT-90">
          <mxGeometry x="740" y="132" width="10" height="60" as="geometry" />
        </mxCell>
        <mxCell id="conp8-0LCWzHYiCez7KT-93" value="" style="html=1;points=[[0,0,0,0,5],[0,1,0,0,-5],[1,0,0,0,5],[1,1,0,0,-5]];perimeter=orthogonalPerimeter;outlineConnect=0;targetShapes=umlLifeline;portConstraint=eastwest;newEdgeStyle={&quot;curved&quot;:0,&quot;rounded&quot;:0};" vertex="1" parent="conp8-0LCWzHYiCez7KT-90">
          <mxGeometry x="740" y="223" width="10" height="60" as="geometry" />
        </mxCell>
        <mxCell id="conp8-0LCWzHYiCez7KT-94" value="RemoveProductFromCart" style="html=1;verticalAlign=bottom;endArrow=open;curved=0;rounded=0;endFill=0;" edge="1" parent="1">
          <mxGeometry width="80" relative="1" as="geometry">
            <mxPoint x="65" y="1023" as="sourcePoint" />
            <mxPoint x="415" y="1023" as="targetPoint" />
          </mxGeometry>
        </mxCell>
        <mxCell id="conp8-0LCWzHYiCez7KT-95" value="RemoveFromCart" style="html=1;verticalAlign=bottom;endArrow=open;curved=0;rounded=0;entryX=0;entryY=0;entryDx=0;entryDy=5;entryPerimeter=0;endFill=0;" edge="1" parent="1" source="conp8-0LCWzHYiCez7KT-85">
          <mxGeometry width="80" relative="1" as="geometry">
            <mxPoint x="410" y="970" as="sourcePoint" />
            <mxPoint x="535" y="1025" as="targetPoint" />
          </mxGeometry>
        </mxCell>
        <mxCell id="conp8-0LCWzHYiCez7KT-96" value="PurchaseProductsInCart" style="html=1;verticalAlign=bottom;endArrow=open;curved=0;rounded=0;endFill=0;" edge="1" parent="1">
          <mxGeometry width="80" relative="1" as="geometry">
            <mxPoint x="65" y="1124" as="sourcePoint" />
            <mxPoint x="535" y="1124" as="targetPoint" />
          </mxGeometry>
        </mxCell>
        <mxCell id="conp8-0LCWzHYiCez7KT-97" value="MakeAnOrder" style="html=1;verticalAlign=bottom;endArrow=open;curved=0;rounded=0;entryX=0;entryY=0;entryDx=0;entryDy=5;entryPerimeter=0;endFill=0;" edge="1" parent="1">
          <mxGeometry width="80" relative="1" as="geometry">
            <mxPoint x="544.9999999999999" y="1132" as="sourcePoint" />
            <mxPoint x="654.9999999999999" y="1132" as="targetPoint" />
          </mxGeometry>
        </mxCell>
        <mxCell id="conp8-0LCWzHYiCez7KT-98" value="opt" style="shape=umlFrame;whiteSpace=wrap;html=1;pointerEvents=0;width=40;height=20;" vertex="1" parent="1">
          <mxGeometry x="-20" y="1096" width="730" height="110" as="geometry" />
        </mxCell>
        <mxCell id="conp8-0LCWzHYiCez7KT-99" value="[productInCart]" style="text;html=1;align=center;verticalAlign=middle;resizable=0;points=[];autosize=1;strokeColor=none;fillColor=none;fontSize=10;" vertex="1" parent="1">
          <mxGeometry x="-30" y="1116" width="90" height="30" as="geometry" />
        </mxCell>
        <mxCell id="conp8-0LCWzHYiCez7KT-100" value="opt" style="shape=umlFrame;whiteSpace=wrap;html=1;pointerEvents=0;width=40;height=20;" vertex="1" parent="1">
          <mxGeometry x="-20" y="750" width="370" height="140" as="geometry" />
        </mxCell>
        <mxCell id="conp8-0LCWzHYiCez7KT-101" value="[Not Registered]" style="text;html=1;align=center;verticalAlign=middle;resizable=0;points=[];autosize=1;strokeColor=none;fillColor=none;fontSize=9;" vertex="1" parent="1">
          <mxGeometry x="-30" y="770" width="90" height="20" as="geometry" />
        </mxCell>
        <mxCell id="conp8-0LCWzHYiCez7KT-102" value="" style="html=1;points=[[0,0,0,0,5],[0,1,0,0,-5],[1,0,0,0,5],[1,1,0,0,-5]];perimeter=orthogonalPerimeter;outlineConnect=0;targetShapes=umlLifeline;portConstraint=eastwest;newEdgeStyle={&quot;curved&quot;:0,&quot;rounded&quot;:0};" vertex="1" parent="1">
          <mxGeometry x="295" y="780" width="10" height="50" as="geometry" />
        </mxCell>
        <mxCell id="conp8-0LCWzHYiCez7KT-103" value="Register" style="html=1;verticalAlign=bottom;endArrow=block;curved=0;rounded=0;exitX=1;exitY=0;exitDx=0;exitDy=5;exitPerimeter=0;" edge="1" parent="1">
          <mxGeometry width="80" relative="1" as="geometry">
            <mxPoint x="65" y="785" as="sourcePoint" />
            <mxPoint x="175" y="785" as="targetPoint" />
          </mxGeometry>
        </mxCell>
        <mxCell id="conp8-0LCWzHYiCez7KT-104" value="AddUserData" style="html=1;verticalAlign=bottom;endArrow=block;curved=0;rounded=0;entryX=-0.015;entryY=0.25;entryDx=0;entryDy=0;entryPerimeter=0;" edge="1" parent="1" source="conp8-0LCWzHYiCez7KT-109" target="conp8-0LCWzHYiCez7KT-102">
          <mxGeometry width="80" relative="1" as="geometry">
            <mxPoint x="185" y="792.5" as="sourcePoint" />
            <mxPoint x="290" y="800" as="targetPoint" />
          </mxGeometry>
        </mxCell>
        <mxCell id="conp8-0LCWzHYiCez7KT-105" value="" style="html=1;verticalAlign=bottom;endArrow=open;dashed=1;endSize=8;curved=0;rounded=0;exitX=0;exitY=1;exitDx=0;exitDy=-5;exitPerimeter=0;" edge="1" parent="1" source="conp8-0LCWzHYiCez7KT-102">
          <mxGeometry relative="1" as="geometry">
            <mxPoint x="295" y="820" as="sourcePoint" />
            <mxPoint x="185" y="825" as="targetPoint" />
          </mxGeometry>
        </mxCell>
        <mxCell id="conp8-0LCWzHYiCez7KT-106" value="" style="html=1;verticalAlign=bottom;endArrow=open;dashed=1;endSize=8;curved=0;rounded=0;exitX=0;exitY=1;exitDx=0;exitDy=-5;exitPerimeter=0;entryX=1;entryY=1;entryDx=0;entryDy=-5;entryPerimeter=0;" edge="1" parent="1">
          <mxGeometry relative="1" as="geometry">
            <mxPoint x="175" y="855" as="sourcePoint" />
            <mxPoint x="65" y="855" as="targetPoint" />
          </mxGeometry>
        </mxCell>
        <mxCell id="conp8-0LCWzHYiCez7KT-107" value="" style="html=1;points=[[0,0,0,0,5],[0,1,0,0,-5],[1,0,0,0,5],[1,1,0,0,-5]];perimeter=orthogonalPerimeter;outlineConnect=0;targetShapes=umlLifeline;portConstraint=eastwest;newEdgeStyle={&quot;curved&quot;:0,&quot;rounded&quot;:0};" vertex="1" parent="1">
          <mxGeometry x="55" y="770" width="10" height="100" as="geometry" />
        </mxCell>
        <mxCell id="conp8-0LCWzHYiCez7KT-108" value="" style="html=1;verticalAlign=bottom;endArrow=block;curved=0;rounded=0;entryX=-0.015;entryY=0.25;entryDx=0;entryDy=0;entryPerimeter=0;" edge="1" parent="1" target="conp8-0LCWzHYiCez7KT-109">
          <mxGeometry width="80" relative="1" as="geometry">
            <mxPoint x="185" y="792.5" as="sourcePoint" />
            <mxPoint x="295" y="793" as="targetPoint" />
          </mxGeometry>
        </mxCell>
        <mxCell id="conp8-0LCWzHYiCez7KT-109" value="" style="html=1;points=[[0,0,0,0,5],[0,1,0,0,-5],[1,0,0,0,5],[1,1,0,0,-5]];perimeter=orthogonalPerimeter;outlineConnect=0;targetShapes=umlLifeline;portConstraint=eastwest;newEdgeStyle={&quot;curved&quot;:0,&quot;rounded&quot;:0};" vertex="1" parent="1">
          <mxGeometry x="175" y="770" width="10" height="100" as="geometry" />
        </mxCell>
        <mxCell id="conp8-0LCWzHYiCez7KT-110" value="" style="shape=umlLifeline;perimeter=lifelinePerimeter;whiteSpace=wrap;html=1;container=1;dropTarget=0;collapsible=0;recursiveResize=0;outlineConnect=0;portConstraint=eastwest;newEdgeStyle={&quot;curved&quot;:0,&quot;rounded&quot;:0};participant=umlActor;" vertex="1" parent="1">
          <mxGeometry x="50" y="1300" width="20" height="570" as="geometry" />
        </mxCell>
        <mxCell id="conp8-0LCWzHYiCez7KT-111" value="" style="html=1;points=[[0,0,0,0,5],[0,1,0,0,-5],[1,0,0,0,5],[1,1,0,0,-5]];perimeter=orthogonalPerimeter;outlineConnect=0;targetShapes=umlLifeline;portConstraint=eastwest;newEdgeStyle={&quot;curved&quot;:0,&quot;rounded&quot;:0};" vertex="1" parent="conp8-0LCWzHYiCez7KT-110">
          <mxGeometry x="5" y="226" width="10" height="330" as="geometry" />
        </mxCell>
        <mxCell id="conp8-0LCWzHYiCez7KT-112" value="User:" style="shape=umlLifeline;perimeter=lifelinePerimeter;whiteSpace=wrap;html=1;container=1;dropTarget=0;collapsible=0;recursiveResize=0;outlineConnect=0;portConstraint=eastwest;newEdgeStyle={&quot;curved&quot;:0,&quot;rounded&quot;:0};" vertex="1" parent="1">
          <mxGeometry x="250" y="1300" width="100" height="570" as="geometry" />
        </mxCell>
        <mxCell id="conp8-0LCWzHYiCez7KT-113" value="" style="html=1;points=[[0,0,0,0,5],[0,1,0,0,-5],[1,0,0,0,5],[1,1,0,0,-5]];perimeter=orthogonalPerimeter;outlineConnect=0;targetShapes=umlLifeline;portConstraint=eastwest;newEdgeStyle={&quot;curved&quot;:0,&quot;rounded&quot;:0};" vertex="1" parent="conp8-0LCWzHYiCez7KT-112">
          <mxGeometry x="45" y="236" width="10" height="60" as="geometry" />
        </mxCell>
        <mxCell id="conp8-0LCWzHYiCez7KT-114" value="Product:" style="shape=umlLifeline;perimeter=lifelinePerimeter;whiteSpace=wrap;html=1;container=1;dropTarget=0;collapsible=0;recursiveResize=0;outlineConnect=0;portConstraint=eastwest;newEdgeStyle={&quot;curved&quot;:0,&quot;rounded&quot;:0};" vertex="1" parent="1">
          <mxGeometry x="370" y="1300" width="100" height="450" as="geometry" />
        </mxCell>
        <mxCell id="conp8-0LCWzHYiCez7KT-115" value="Customer" style="text;html=1;strokeColor=none;fillColor=none;align=center;verticalAlign=middle;whiteSpace=wrap;rounded=0;" vertex="1" parent="1">
          <mxGeometry x="30" y="1260" width="60" height="30" as="geometry" />
        </mxCell>
        <mxCell id="conp8-0LCWzHYiCez7KT-116" value="LoginScreen:" style="shape=umlLifeline;perimeter=lifelinePerimeter;whiteSpace=wrap;html=1;container=1;dropTarget=0;collapsible=0;recursiveResize=0;outlineConnect=0;portConstraint=eastwest;newEdgeStyle={&quot;curved&quot;:0,&quot;rounded&quot;:0};" vertex="1" parent="1">
          <mxGeometry x="130" y="1300" width="100" height="570" as="geometry" />
        </mxCell>
        <mxCell id="conp8-0LCWzHYiCez7KT-117" value="" style="html=1;points=[[0,0,0,0,5],[0,1,0,0,-5],[1,0,0,0,5],[1,1,0,0,-5]];perimeter=orthogonalPerimeter;outlineConnect=0;targetShapes=umlLifeline;portConstraint=eastwest;newEdgeStyle={&quot;curved&quot;:0,&quot;rounded&quot;:0};" vertex="1" parent="conp8-0LCWzHYiCez7KT-116">
          <mxGeometry x="45" y="226" width="10" height="80" as="geometry" />
        </mxCell>
        <mxCell id="conp8-0LCWzHYiCez7KT-118" value="&lt;font style=&quot;font-size: 10px;&quot;&gt;Login(email,pass)&lt;/font&gt;" style="html=1;verticalAlign=bottom;endArrow=block;curved=0;rounded=0;exitX=1;exitY=0;exitDx=0;exitDy=5;exitPerimeter=0;" edge="1" parent="1">
          <mxGeometry width="80" relative="1" as="geometry">
            <mxPoint x="65" y="1546" as="sourcePoint" />
            <mxPoint x="175" y="1546" as="targetPoint" />
          </mxGeometry>
        </mxCell>
        <mxCell id="conp8-0LCWzHYiCez7KT-119" value="Verification" style="html=1;verticalAlign=bottom;endArrow=block;curved=0;rounded=0;entryX=-0.015;entryY=0.25;entryDx=0;entryDy=0;entryPerimeter=0;" edge="1" parent="1">
          <mxGeometry width="80" relative="1" as="geometry">
            <mxPoint x="185" y="1556" as="sourcePoint" />
            <mxPoint x="295" y="1556" as="targetPoint" />
          </mxGeometry>
        </mxCell>
        <mxCell id="conp8-0LCWzHYiCez7KT-120" value="" style="html=1;verticalAlign=bottom;endArrow=open;dashed=1;endSize=8;curved=0;rounded=0;exitX=0;exitY=1;exitDx=0;exitDy=-5;exitPerimeter=0;" edge="1" parent="1">
          <mxGeometry relative="1" as="geometry">
            <mxPoint x="175" y="1596" as="sourcePoint" />
            <mxPoint x="65" y="1596" as="targetPoint" />
          </mxGeometry>
        </mxCell>
        <mxCell id="conp8-0LCWzHYiCez7KT-121" value="" style="html=1;verticalAlign=bottom;endArrow=open;dashed=1;endSize=8;curved=0;rounded=0;exitX=0;exitY=1;exitDx=0;exitDy=-5;exitPerimeter=0;" edge="1" parent="1">
          <mxGeometry relative="1" as="geometry">
            <mxPoint x="295" y="1576.0000000000002" as="sourcePoint" />
            <mxPoint x="185" y="1576.0000000000002" as="targetPoint" />
          </mxGeometry>
        </mxCell>
        <mxCell id="conp8-0LCWzHYiCez7KT-122" value="Product:" style="shape=umlLifeline;perimeter=lifelinePerimeter;whiteSpace=wrap;html=1;container=1;dropTarget=0;collapsible=0;recursiveResize=0;outlineConnect=0;portConstraint=eastwest;newEdgeStyle={&quot;curved&quot;:0,&quot;rounded&quot;:0};" vertex="1" parent="1">
          <mxGeometry x="370" y="1300" width="100" height="570" as="geometry" />
        </mxCell>
        <mxCell id="conp8-0LCWzHYiCez7KT-123" value="" style="html=1;points=[[0,0,0,0,5],[0,1,0,0,-5],[1,0,0,0,5],[1,1,0,0,-5]];perimeter=orthogonalPerimeter;outlineConnect=0;targetShapes=umlLifeline;portConstraint=eastwest;newEdgeStyle={&quot;curved&quot;:0,&quot;rounded&quot;:0};" vertex="1" parent="conp8-0LCWzHYiCez7KT-122">
          <mxGeometry x="45" y="320" width="10" height="80" as="geometry" />
        </mxCell>
        <mxCell id="conp8-0LCWzHYiCez7KT-124" value="" style="html=1;points=[[0,0,0,0,5],[0,1,0,0,-5],[1,0,0,0,5],[1,1,0,0,-5]];perimeter=orthogonalPerimeter;outlineConnect=0;targetShapes=umlLifeline;portConstraint=eastwest;newEdgeStyle={&quot;curved&quot;:0,&quot;rounded&quot;:0};" vertex="1" parent="conp8-0LCWzHYiCez7KT-122">
          <mxGeometry x="740" y="120" width="10" height="80" as="geometry" />
        </mxCell>
        <mxCell id="conp8-0LCWzHYiCez7KT-125" value="Cart:" style="shape=umlLifeline;perimeter=lifelinePerimeter;whiteSpace=wrap;html=1;container=1;dropTarget=0;collapsible=0;recursiveResize=0;outlineConnect=0;portConstraint=eastwest;newEdgeStyle={&quot;curved&quot;:0,&quot;rounded&quot;:0};" vertex="1" parent="1">
          <mxGeometry x="490" y="1300" width="100" height="570" as="geometry" />
        </mxCell>
        <mxCell id="conp8-0LCWzHYiCez7KT-127" value="" style="html=1;points=[[0,0,0,0,5],[0,1,0,0,-5],[1,0,0,0,5],[1,1,0,0,-5]];perimeter=orthogonalPerimeter;outlineConnect=0;targetShapes=umlLifeline;portConstraint=eastwest;newEdgeStyle={&quot;curved&quot;:0,&quot;rounded&quot;:0};" vertex="1" parent="conp8-0LCWzHYiCez7KT-125">
          <mxGeometry x="45" y="422" width="10" height="80" as="geometry" />
        </mxCell>
        <mxCell id="conp8-0LCWzHYiCez7KT-128" value="Order:" style="shape=umlLifeline;perimeter=lifelinePerimeter;whiteSpace=wrap;html=1;container=1;dropTarget=0;collapsible=0;recursiveResize=0;outlineConnect=0;portConstraint=eastwest;newEdgeStyle={&quot;curved&quot;:0,&quot;rounded&quot;:0};" vertex="1" parent="1">
          <mxGeometry x="610" y="1300" width="100" height="570" as="geometry" />
        </mxCell>
        <mxCell id="conp8-0LCWzHYiCez7KT-129" value="" style="html=1;points=[[0,0,0,0,5],[0,1,0,0,-5],[1,0,0,0,5],[1,1,0,0,-5]];perimeter=orthogonalPerimeter;outlineConnect=0;targetShapes=umlLifeline;portConstraint=eastwest;newEdgeStyle={&quot;curved&quot;:0,&quot;rounded&quot;:0};" vertex="1" parent="conp8-0LCWzHYiCez7KT-128">
          <mxGeometry x="45" y="428" width="10" height="60" as="geometry" />
        </mxCell>
        <mxCell id="conp8-0LCWzHYiCez7KT-130" value="" style="html=1;points=[[0,0,0,0,5],[0,1,0,0,-5],[1,0,0,0,5],[1,1,0,0,-5]];perimeter=orthogonalPerimeter;outlineConnect=0;targetShapes=umlLifeline;portConstraint=eastwest;newEdgeStyle={&quot;curved&quot;:0,&quot;rounded&quot;:0};" vertex="1" parent="conp8-0LCWzHYiCez7KT-128">
          <mxGeometry x="740" y="132" width="10" height="60" as="geometry" />
        </mxCell>
        <mxCell id="conp8-0LCWzHYiCez7KT-131" value="" style="html=1;points=[[0,0,0,0,5],[0,1,0,0,-5],[1,0,0,0,5],[1,1,0,0,-5]];perimeter=orthogonalPerimeter;outlineConnect=0;targetShapes=umlLifeline;portConstraint=eastwest;newEdgeStyle={&quot;curved&quot;:0,&quot;rounded&quot;:0};" vertex="1" parent="conp8-0LCWzHYiCez7KT-128">
          <mxGeometry x="740" y="223" width="10" height="60" as="geometry" />
        </mxCell>
        <mxCell id="conp8-0LCWzHYiCez7KT-148" value="" style="html=1;points=[[0,0,0,0,5],[0,1,0,0,-5],[1,0,0,0,5],[1,1,0,0,-5]];perimeter=orthogonalPerimeter;outlineConnect=0;targetShapes=umlLifeline;portConstraint=eastwest;newEdgeStyle={&quot;curved&quot;:0,&quot;rounded&quot;:0};" vertex="1" parent="conp8-0LCWzHYiCez7KT-128">
          <mxGeometry x="45" y="320" width="10" height="60" as="geometry" />
        </mxCell>
        <mxCell id="conp8-0LCWzHYiCez7KT-132" value="BuyProductDirect" style="html=1;verticalAlign=bottom;endArrow=open;curved=0;rounded=0;endFill=0;" edge="1" parent="1">
          <mxGeometry width="80" relative="1" as="geometry">
            <mxPoint x="65" y="1633" as="sourcePoint" />
            <mxPoint x="415" y="1633" as="targetPoint" />
          </mxGeometry>
        </mxCell>
        <mxCell id="conp8-0LCWzHYiCez7KT-133" value="MakeAnOrder" style="html=1;verticalAlign=bottom;endArrow=open;curved=0;rounded=0;endFill=0;" edge="1" parent="1" target="conp8-0LCWzHYiCez7KT-148">
          <mxGeometry width="80" relative="1" as="geometry">
            <mxPoint x="425" y="1635" as="sourcePoint" />
            <mxPoint x="650" y="1635" as="targetPoint" />
          </mxGeometry>
        </mxCell>
        <mxCell id="conp8-0LCWzHYiCez7KT-134" value="PurchaseProductsInCart" style="html=1;verticalAlign=bottom;endArrow=open;curved=0;rounded=0;endFill=0;" edge="1" parent="1">
          <mxGeometry width="80" relative="1" as="geometry">
            <mxPoint x="65" y="1734" as="sourcePoint" />
            <mxPoint x="535" y="1734" as="targetPoint" />
          </mxGeometry>
        </mxCell>
        <mxCell id="conp8-0LCWzHYiCez7KT-135" value="MakeAnOrder" style="html=1;verticalAlign=bottom;endArrow=open;curved=0;rounded=0;entryX=0;entryY=0;entryDx=0;entryDy=5;entryPerimeter=0;endFill=0;" edge="1" parent="1">
          <mxGeometry width="80" relative="1" as="geometry">
            <mxPoint x="544.9999999999999" y="1742" as="sourcePoint" />
            <mxPoint x="654.9999999999999" y="1742" as="targetPoint" />
          </mxGeometry>
        </mxCell>
        <mxCell id="conp8-0LCWzHYiCez7KT-136" value="opt" style="shape=umlFrame;whiteSpace=wrap;html=1;pointerEvents=0;width=40;height=20;" vertex="1" parent="1">
          <mxGeometry x="-20" y="1706" width="730" height="110" as="geometry" />
        </mxCell>
        <mxCell id="conp8-0LCWzHYiCez7KT-137" value="[productInCart]" style="text;html=1;align=center;verticalAlign=middle;resizable=0;points=[];autosize=1;strokeColor=none;fillColor=none;fontSize=10;" vertex="1" parent="1">
          <mxGeometry x="-30" y="1726" width="90" height="30" as="geometry" />
        </mxCell>
        <mxCell id="conp8-0LCWzHYiCez7KT-138" value="opt" style="shape=umlFrame;whiteSpace=wrap;html=1;pointerEvents=0;width=40;height=20;" vertex="1" parent="1">
          <mxGeometry x="-20" y="1360" width="370" height="140" as="geometry" />
        </mxCell>
        <mxCell id="conp8-0LCWzHYiCez7KT-139" value="[Not Registered]" style="text;html=1;align=center;verticalAlign=middle;resizable=0;points=[];autosize=1;strokeColor=none;fillColor=none;fontSize=9;" vertex="1" parent="1">
          <mxGeometry x="-30" y="1380" width="90" height="20" as="geometry" />
        </mxCell>
        <mxCell id="conp8-0LCWzHYiCez7KT-140" value="" style="html=1;points=[[0,0,0,0,5],[0,1,0,0,-5],[1,0,0,0,5],[1,1,0,0,-5]];perimeter=orthogonalPerimeter;outlineConnect=0;targetShapes=umlLifeline;portConstraint=eastwest;newEdgeStyle={&quot;curved&quot;:0,&quot;rounded&quot;:0};" vertex="1" parent="1">
          <mxGeometry x="295" y="1390" width="10" height="50" as="geometry" />
        </mxCell>
        <mxCell id="conp8-0LCWzHYiCez7KT-141" value="Register" style="html=1;verticalAlign=bottom;endArrow=block;curved=0;rounded=0;exitX=1;exitY=0;exitDx=0;exitDy=5;exitPerimeter=0;" edge="1" parent="1">
          <mxGeometry width="80" relative="1" as="geometry">
            <mxPoint x="65" y="1395" as="sourcePoint" />
            <mxPoint x="175" y="1395" as="targetPoint" />
          </mxGeometry>
        </mxCell>
        <mxCell id="conp8-0LCWzHYiCez7KT-142" value="AddUserData" style="html=1;verticalAlign=bottom;endArrow=block;curved=0;rounded=0;entryX=-0.015;entryY=0.25;entryDx=0;entryDy=0;entryPerimeter=0;" edge="1" parent="1" source="conp8-0LCWzHYiCez7KT-147" target="conp8-0LCWzHYiCez7KT-140">
          <mxGeometry width="80" relative="1" as="geometry">
            <mxPoint x="185" y="1402.5" as="sourcePoint" />
            <mxPoint x="290" y="1410" as="targetPoint" />
          </mxGeometry>
        </mxCell>
        <mxCell id="conp8-0LCWzHYiCez7KT-143" value="" style="html=1;verticalAlign=bottom;endArrow=open;dashed=1;endSize=8;curved=0;rounded=0;exitX=0;exitY=1;exitDx=0;exitDy=-5;exitPerimeter=0;" edge="1" parent="1" source="conp8-0LCWzHYiCez7KT-140">
          <mxGeometry relative="1" as="geometry">
            <mxPoint x="295" y="1430" as="sourcePoint" />
            <mxPoint x="185" y="1435" as="targetPoint" />
          </mxGeometry>
        </mxCell>
        <mxCell id="conp8-0LCWzHYiCez7KT-144" value="" style="html=1;verticalAlign=bottom;endArrow=open;dashed=1;endSize=8;curved=0;rounded=0;exitX=0;exitY=1;exitDx=0;exitDy=-5;exitPerimeter=0;entryX=1;entryY=1;entryDx=0;entryDy=-5;entryPerimeter=0;" edge="1" parent="1">
          <mxGeometry relative="1" as="geometry">
            <mxPoint x="175" y="1465" as="sourcePoint" />
            <mxPoint x="65" y="1465" as="targetPoint" />
          </mxGeometry>
        </mxCell>
        <mxCell id="conp8-0LCWzHYiCez7KT-145" value="" style="html=1;points=[[0,0,0,0,5],[0,1,0,0,-5],[1,0,0,0,5],[1,1,0,0,-5]];perimeter=orthogonalPerimeter;outlineConnect=0;targetShapes=umlLifeline;portConstraint=eastwest;newEdgeStyle={&quot;curved&quot;:0,&quot;rounded&quot;:0};" vertex="1" parent="1">
          <mxGeometry x="55" y="1380" width="10" height="100" as="geometry" />
        </mxCell>
        <mxCell id="conp8-0LCWzHYiCez7KT-146" value="" style="html=1;verticalAlign=bottom;endArrow=block;curved=0;rounded=0;entryX=-0.015;entryY=0.25;entryDx=0;entryDy=0;entryPerimeter=0;" edge="1" parent="1" target="conp8-0LCWzHYiCez7KT-147">
          <mxGeometry width="80" relative="1" as="geometry">
            <mxPoint x="185" y="1402.5" as="sourcePoint" />
            <mxPoint x="295" y="1403" as="targetPoint" />
          </mxGeometry>
        </mxCell>
        <mxCell id="conp8-0LCWzHYiCez7KT-147" value="" style="html=1;points=[[0,0,0,0,5],[0,1,0,0,-5],[1,0,0,0,5],[1,1,0,0,-5]];perimeter=orthogonalPerimeter;outlineConnect=0;targetShapes=umlLifeline;portConstraint=eastwest;newEdgeStyle={&quot;curved&quot;:0,&quot;rounded&quot;:0};" vertex="1" parent="1">
          <mxGeometry x="175" y="1380" width="10" height="100" as="geometry" />
        </mxCell>
        <mxCell id="conp8-0LCWzHYiCez7KT-149" value="" style="shape=umlLifeline;perimeter=lifelinePerimeter;whiteSpace=wrap;html=1;container=1;dropTarget=0;collapsible=0;recursiveResize=0;outlineConnect=0;portConstraint=eastwest;newEdgeStyle={&quot;curved&quot;:0,&quot;rounded&quot;:0};participant=umlActor;" vertex="1" parent="1">
          <mxGeometry x="50" y="1920" width="20" height="460" as="geometry" />
        </mxCell>
        <mxCell id="conp8-0LCWzHYiCez7KT-150" value="" style="html=1;points=[[0,0,0,0,5],[0,1,0,0,-5],[1,0,0,0,5],[1,1,0,0,-5]];perimeter=orthogonalPerimeter;outlineConnect=0;targetShapes=umlLifeline;portConstraint=eastwest;newEdgeStyle={&quot;curved&quot;:0,&quot;rounded&quot;:0};" vertex="1" parent="conp8-0LCWzHYiCez7KT-149">
          <mxGeometry x="5" y="226" width="10" height="214" as="geometry" />
        </mxCell>
        <mxCell id="conp8-0LCWzHYiCez7KT-151" value="User:" style="shape=umlLifeline;perimeter=lifelinePerimeter;whiteSpace=wrap;html=1;container=1;dropTarget=0;collapsible=0;recursiveResize=0;outlineConnect=0;portConstraint=eastwest;newEdgeStyle={&quot;curved&quot;:0,&quot;rounded&quot;:0};" vertex="1" parent="1">
          <mxGeometry x="250" y="1920" width="100" height="460" as="geometry" />
        </mxCell>
        <mxCell id="conp8-0LCWzHYiCez7KT-152" value="" style="html=1;points=[[0,0,0,0,5],[0,1,0,0,-5],[1,0,0,0,5],[1,1,0,0,-5]];perimeter=orthogonalPerimeter;outlineConnect=0;targetShapes=umlLifeline;portConstraint=eastwest;newEdgeStyle={&quot;curved&quot;:0,&quot;rounded&quot;:0};" vertex="1" parent="conp8-0LCWzHYiCez7KT-151">
          <mxGeometry x="45" y="236" width="10" height="60" as="geometry" />
        </mxCell>
        <mxCell id="conp8-0LCWzHYiCez7KT-153" value="Product:" style="shape=umlLifeline;perimeter=lifelinePerimeter;whiteSpace=wrap;html=1;container=1;dropTarget=0;collapsible=0;recursiveResize=0;outlineConnect=0;portConstraint=eastwest;newEdgeStyle={&quot;curved&quot;:0,&quot;rounded&quot;:0};" vertex="1" parent="1">
          <mxGeometry x="370" y="1920" width="100" height="450" as="geometry" />
        </mxCell>
        <mxCell id="conp8-0LCWzHYiCez7KT-154" value="Customer" style="text;html=1;strokeColor=none;fillColor=none;align=center;verticalAlign=middle;whiteSpace=wrap;rounded=0;" vertex="1" parent="1">
          <mxGeometry x="30" y="1880" width="60" height="30" as="geometry" />
        </mxCell>
        <mxCell id="conp8-0LCWzHYiCez7KT-155" value="LoginScreen:" style="shape=umlLifeline;perimeter=lifelinePerimeter;whiteSpace=wrap;html=1;container=1;dropTarget=0;collapsible=0;recursiveResize=0;outlineConnect=0;portConstraint=eastwest;newEdgeStyle={&quot;curved&quot;:0,&quot;rounded&quot;:0};" vertex="1" parent="1">
          <mxGeometry x="130" y="1920" width="100" height="460" as="geometry" />
        </mxCell>
        <mxCell id="conp8-0LCWzHYiCez7KT-156" value="" style="html=1;points=[[0,0,0,0,5],[0,1,0,0,-5],[1,0,0,0,5],[1,1,0,0,-5]];perimeter=orthogonalPerimeter;outlineConnect=0;targetShapes=umlLifeline;portConstraint=eastwest;newEdgeStyle={&quot;curved&quot;:0,&quot;rounded&quot;:0};" vertex="1" parent="conp8-0LCWzHYiCez7KT-155">
          <mxGeometry x="45" y="226" width="10" height="80" as="geometry" />
        </mxCell>
        <mxCell id="conp8-0LCWzHYiCez7KT-157" value="&lt;font style=&quot;font-size: 10px;&quot;&gt;Login(email,pass)&lt;/font&gt;" style="html=1;verticalAlign=bottom;endArrow=block;curved=0;rounded=0;exitX=1;exitY=0;exitDx=0;exitDy=5;exitPerimeter=0;" edge="1" parent="1">
          <mxGeometry width="80" relative="1" as="geometry">
            <mxPoint x="65" y="2166" as="sourcePoint" />
            <mxPoint x="175" y="2166" as="targetPoint" />
          </mxGeometry>
        </mxCell>
        <mxCell id="conp8-0LCWzHYiCez7KT-158" value="Verification" style="html=1;verticalAlign=bottom;endArrow=block;curved=0;rounded=0;entryX=-0.015;entryY=0.25;entryDx=0;entryDy=0;entryPerimeter=0;" edge="1" parent="1">
          <mxGeometry width="80" relative="1" as="geometry">
            <mxPoint x="185" y="2176" as="sourcePoint" />
            <mxPoint x="295" y="2176" as="targetPoint" />
          </mxGeometry>
        </mxCell>
        <mxCell id="conp8-0LCWzHYiCez7KT-159" value="" style="html=1;verticalAlign=bottom;endArrow=open;dashed=1;endSize=8;curved=0;rounded=0;exitX=0;exitY=1;exitDx=0;exitDy=-5;exitPerimeter=0;" edge="1" parent="1">
          <mxGeometry relative="1" as="geometry">
            <mxPoint x="175" y="2216" as="sourcePoint" />
            <mxPoint x="65" y="2216" as="targetPoint" />
          </mxGeometry>
        </mxCell>
        <mxCell id="conp8-0LCWzHYiCez7KT-160" value="" style="html=1;verticalAlign=bottom;endArrow=open;dashed=1;endSize=8;curved=0;rounded=0;exitX=0;exitY=1;exitDx=0;exitDy=-5;exitPerimeter=0;" edge="1" parent="1">
          <mxGeometry relative="1" as="geometry">
            <mxPoint x="295" y="2196" as="sourcePoint" />
            <mxPoint x="185" y="2196" as="targetPoint" />
          </mxGeometry>
        </mxCell>
        <mxCell id="conp8-0LCWzHYiCez7KT-161" value="Product:" style="shape=umlLifeline;perimeter=lifelinePerimeter;whiteSpace=wrap;html=1;container=1;dropTarget=0;collapsible=0;recursiveResize=0;outlineConnect=0;portConstraint=eastwest;newEdgeStyle={&quot;curved&quot;:0,&quot;rounded&quot;:0};" vertex="1" parent="1">
          <mxGeometry x="370" y="1920" width="100" height="460" as="geometry" />
        </mxCell>
        <mxCell id="conp8-0LCWzHYiCez7KT-163" value="" style="html=1;points=[[0,0,0,0,5],[0,1,0,0,-5],[1,0,0,0,5],[1,1,0,0,-5]];perimeter=orthogonalPerimeter;outlineConnect=0;targetShapes=umlLifeline;portConstraint=eastwest;newEdgeStyle={&quot;curved&quot;:0,&quot;rounded&quot;:0};" vertex="1" parent="conp8-0LCWzHYiCez7KT-161">
          <mxGeometry x="740" y="120" width="10" height="80" as="geometry" />
        </mxCell>
        <mxCell id="conp8-0LCWzHYiCez7KT-164" value="Cart:" style="shape=umlLifeline;perimeter=lifelinePerimeter;whiteSpace=wrap;html=1;container=1;dropTarget=0;collapsible=0;recursiveResize=0;outlineConnect=0;portConstraint=eastwest;newEdgeStyle={&quot;curved&quot;:0,&quot;rounded&quot;:0};" vertex="1" parent="1">
          <mxGeometry x="490" y="1920" width="100" height="460" as="geometry" />
        </mxCell>
        <mxCell id="conp8-0LCWzHYiCez7KT-166" value="Order:" style="shape=umlLifeline;perimeter=lifelinePerimeter;whiteSpace=wrap;html=1;container=1;dropTarget=0;collapsible=0;recursiveResize=0;outlineConnect=0;portConstraint=eastwest;newEdgeStyle={&quot;curved&quot;:0,&quot;rounded&quot;:0};" vertex="1" parent="1">
          <mxGeometry x="610" y="1920" width="100" height="460" as="geometry" />
        </mxCell>
        <mxCell id="conp8-0LCWzHYiCez7KT-168" value="" style="html=1;points=[[0,0,0,0,5],[0,1,0,0,-5],[1,0,0,0,5],[1,1,0,0,-5]];perimeter=orthogonalPerimeter;outlineConnect=0;targetShapes=umlLifeline;portConstraint=eastwest;newEdgeStyle={&quot;curved&quot;:0,&quot;rounded&quot;:0};" vertex="1" parent="conp8-0LCWzHYiCez7KT-166">
          <mxGeometry x="740" y="132" width="10" height="60" as="geometry" />
        </mxCell>
        <mxCell id="conp8-0LCWzHYiCez7KT-169" value="" style="html=1;points=[[0,0,0,0,5],[0,1,0,0,-5],[1,0,0,0,5],[1,1,0,0,-5]];perimeter=orthogonalPerimeter;outlineConnect=0;targetShapes=umlLifeline;portConstraint=eastwest;newEdgeStyle={&quot;curved&quot;:0,&quot;rounded&quot;:0};" vertex="1" parent="conp8-0LCWzHYiCez7KT-166">
          <mxGeometry x="740" y="223" width="10" height="60" as="geometry" />
        </mxCell>
        <mxCell id="conp8-0LCWzHYiCez7KT-170" value="" style="html=1;points=[[0,0,0,0,5],[0,1,0,0,-5],[1,0,0,0,5],[1,1,0,0,-5]];perimeter=orthogonalPerimeter;outlineConnect=0;targetShapes=umlLifeline;portConstraint=eastwest;newEdgeStyle={&quot;curved&quot;:0,&quot;rounded&quot;:0};" vertex="1" parent="conp8-0LCWzHYiCez7KT-166">
          <mxGeometry x="45" y="320" width="10" height="60" as="geometry" />
        </mxCell>
        <mxCell id="conp8-0LCWzHYiCez7KT-171" value="ViewHistoryOfOrders" style="html=1;verticalAlign=bottom;endArrow=open;curved=0;rounded=0;endFill=0;" edge="1" parent="1" target="conp8-0LCWzHYiCez7KT-170">
          <mxGeometry width="80" relative="1" as="geometry">
            <mxPoint x="65" y="2253" as="sourcePoint" />
            <mxPoint x="415" y="2253" as="targetPoint" />
          </mxGeometry>
        </mxCell>
        <mxCell id="conp8-0LCWzHYiCez7KT-177" value="opt" style="shape=umlFrame;whiteSpace=wrap;html=1;pointerEvents=0;width=40;height=20;" vertex="1" parent="1">
          <mxGeometry x="-20" y="1980" width="370" height="140" as="geometry" />
        </mxCell>
        <mxCell id="conp8-0LCWzHYiCez7KT-178" value="[Not Registered]" style="text;html=1;align=center;verticalAlign=middle;resizable=0;points=[];autosize=1;strokeColor=none;fillColor=none;fontSize=9;" vertex="1" parent="1">
          <mxGeometry x="-30" y="2000" width="90" height="20" as="geometry" />
        </mxCell>
        <mxCell id="conp8-0LCWzHYiCez7KT-179" value="" style="html=1;points=[[0,0,0,0,5],[0,1,0,0,-5],[1,0,0,0,5],[1,1,0,0,-5]];perimeter=orthogonalPerimeter;outlineConnect=0;targetShapes=umlLifeline;portConstraint=eastwest;newEdgeStyle={&quot;curved&quot;:0,&quot;rounded&quot;:0};" vertex="1" parent="1">
          <mxGeometry x="295" y="2010" width="10" height="50" as="geometry" />
        </mxCell>
        <mxCell id="conp8-0LCWzHYiCez7KT-180" value="Register" style="html=1;verticalAlign=bottom;endArrow=block;curved=0;rounded=0;exitX=1;exitY=0;exitDx=0;exitDy=5;exitPerimeter=0;" edge="1" parent="1">
          <mxGeometry width="80" relative="1" as="geometry">
            <mxPoint x="65" y="2015" as="sourcePoint" />
            <mxPoint x="175" y="2015" as="targetPoint" />
          </mxGeometry>
        </mxCell>
        <mxCell id="conp8-0LCWzHYiCez7KT-181" value="AddUserData" style="html=1;verticalAlign=bottom;endArrow=block;curved=0;rounded=0;entryX=-0.015;entryY=0.25;entryDx=0;entryDy=0;entryPerimeter=0;" edge="1" parent="1" source="conp8-0LCWzHYiCez7KT-186" target="conp8-0LCWzHYiCez7KT-179">
          <mxGeometry width="80" relative="1" as="geometry">
            <mxPoint x="185" y="2022.5" as="sourcePoint" />
            <mxPoint x="290" y="2030" as="targetPoint" />
          </mxGeometry>
        </mxCell>
        <mxCell id="conp8-0LCWzHYiCez7KT-182" value="" style="html=1;verticalAlign=bottom;endArrow=open;dashed=1;endSize=8;curved=0;rounded=0;exitX=0;exitY=1;exitDx=0;exitDy=-5;exitPerimeter=0;" edge="1" parent="1" source="conp8-0LCWzHYiCez7KT-179">
          <mxGeometry relative="1" as="geometry">
            <mxPoint x="295" y="2050" as="sourcePoint" />
            <mxPoint x="185" y="2055" as="targetPoint" />
          </mxGeometry>
        </mxCell>
        <mxCell id="conp8-0LCWzHYiCez7KT-183" value="" style="html=1;verticalAlign=bottom;endArrow=open;dashed=1;endSize=8;curved=0;rounded=0;exitX=0;exitY=1;exitDx=0;exitDy=-5;exitPerimeter=0;entryX=1;entryY=1;entryDx=0;entryDy=-5;entryPerimeter=0;" edge="1" parent="1">
          <mxGeometry relative="1" as="geometry">
            <mxPoint x="175" y="2085" as="sourcePoint" />
            <mxPoint x="65" y="2085" as="targetPoint" />
          </mxGeometry>
        </mxCell>
        <mxCell id="conp8-0LCWzHYiCez7KT-184" value="" style="html=1;points=[[0,0,0,0,5],[0,1,0,0,-5],[1,0,0,0,5],[1,1,0,0,-5]];perimeter=orthogonalPerimeter;outlineConnect=0;targetShapes=umlLifeline;portConstraint=eastwest;newEdgeStyle={&quot;curved&quot;:0,&quot;rounded&quot;:0};" vertex="1" parent="1">
          <mxGeometry x="55" y="2000" width="10" height="100" as="geometry" />
        </mxCell>
        <mxCell id="conp8-0LCWzHYiCez7KT-185" value="" style="html=1;verticalAlign=bottom;endArrow=block;curved=0;rounded=0;entryX=-0.015;entryY=0.25;entryDx=0;entryDy=0;entryPerimeter=0;" edge="1" parent="1" target="conp8-0LCWzHYiCez7KT-186">
          <mxGeometry width="80" relative="1" as="geometry">
            <mxPoint x="185" y="2022.5" as="sourcePoint" />
            <mxPoint x="295" y="2023" as="targetPoint" />
          </mxGeometry>
        </mxCell>
        <mxCell id="conp8-0LCWzHYiCez7KT-186" value="" style="html=1;points=[[0,0,0,0,5],[0,1,0,0,-5],[1,0,0,0,5],[1,1,0,0,-5]];perimeter=orthogonalPerimeter;outlineConnect=0;targetShapes=umlLifeline;portConstraint=eastwest;newEdgeStyle={&quot;curved&quot;:0,&quot;rounded&quot;:0};" vertex="1" parent="1">
          <mxGeometry x="175" y="2000" width="10" height="100" as="geometry" />
        </mxCell>
      </root>
    </mxGraphModel>
  </diagram>
</mxfile>
